<?xml version="1.0" encoding="UTF-8"?>
<svg width="1005px" height="328px" viewBox="0 0 1005 328" version="1.1" xmlns="http://www.w3.org/2000/svg" xmlns:xlink="http://www.w3.org/1999/xlink">
    <!-- Generator: Sketch 54.1 (76490) - https://sketchapp.com -->
    <title>Group 6</title>
    <desc>Created with Sketch.</desc>
    <g id="Page-1" stroke="none" stroke-width="1" fill="none" fill-rule="evenodd">
        <g id="Group-6" transform="translate(0.000000, 5.000000)">
            <path d="M5.68434189e-14,144.701835 L37.9816514,144.701835 L67.4311927,249.451835 L67.9816514,249.451835 L67.9816514,144.701835 L94.9541284,144.701835 L94.9541284,319.701835 L63.853211,319.701835 L27.5229358,191.951835 L26.9724771,191.951835 L26.9724771,319.701835 L5.68434189e-14,319.701835 L5.68434189e-14,144.701835 Z M155.550459,322.201835 C140.687999,322.201835 129.311966,318.36854 121.422018,310.701835 C113.532071,303.03513 109.587156,292.201905 109.587156,278.201835 L109.587156,186.201835 C109.587156,172.201765 113.532071,161.36854 121.422018,153.701835 C129.311966,146.03513 140.687999,142.201835 155.550459,142.201835 C170.412918,142.201835 181.788951,146.03513 189.678899,153.701835 C197.568847,161.36854 201.513761,172.201765 201.513761,186.201835 L201.513761,278.201835 C201.513761,292.201905 197.568847,303.03513 189.678899,310.701835 C181.788951,318.36854 170.412918,322.201835 155.550459,322.201835 Z M155.550459,297.201835 C166.009227,297.201835 171.238532,291.451892 171.238532,279.951835 L171.238532,184.451835 C171.238532,172.951777 166.009227,167.201835 155.550459,167.201835 C145.091691,167.201835 139.862385,172.951777 139.862385,184.451835 L139.862385,279.951835 C139.862385,291.451892 145.091691,297.201835 155.550459,297.201835 Z M216.146789,144.701835 L261.009174,144.701835 C276.605583,144.701835 287.981616,147.993469 295.137615,154.576835 C302.293614,161.160201 305.87156,171.2851 305.87156,184.951835 L305.87156,195.701835 C305.87156,213.868592 299.266121,225.368477 286.055046,230.201835 L286.055046,230.701835 C293.394532,232.701845 298.577967,236.785137 301.605505,242.951835 C304.633043,249.118532 306.146789,257.36845 306.146789,267.701835 L306.146789,298.451835 C306.146789,303.45186 306.330273,307.493486 306.697248,310.576835 C307.064222,313.660184 307.981644,316.70182 309.449541,319.701835 L278.623853,319.701835 C277.52293,316.868487 276.788993,314.201847 276.422018,311.701835 C276.055044,309.201822 275.87156,304.701867 275.87156,298.201835 L275.87156,266.201835 C275.87156,258.201795 274.449556,252.618517 271.605505,249.451835 C268.761454,246.285152 263.853246,244.701835 256.880734,244.701835 L246.422018,244.701835 L246.422018,319.701835 L216.146789,319.701835 L216.146789,144.701835 Z M257.431193,219.701835 C263.486269,219.701835 268.027508,218.285182 271.055046,215.451835 C274.082584,212.618487 275.59633,207.868535 275.59633,201.201835 L275.59633,187.701835 C275.59633,181.36847 274.357811,176.785182 271.880734,173.951835 C269.403657,171.118487 265.504614,169.701835 260.183486,169.701835 L246.422018,169.701835 L246.422018,219.701835 L257.431193,219.701835 Z M344.449541,169.701835 L312.798165,169.701835 L312.798165,144.701835 L406.376147,144.701835 L406.376147,169.701835 L374.724771,169.701835 L374.724771,319.701835 L344.449541,319.701835 L344.449541,169.701835 Z M415.229358,144.701835 L445.504587,144.701835 L445.504587,215.951835 L477.981651,215.951835 L477.981651,144.701835 L508.256881,144.701835 L508.256881,319.701835 L477.981651,319.701835 L477.981651,240.951835 L445.504587,240.951835 L445.504587,319.701835 L415.229358,319.701835 L415.229358,144.701835 Z M545.045872,144.701835 L583.027523,144.701835 L612.477064,249.451835 L613.027523,249.451835 L613.027523,144.701835 L640,144.701835 L640,319.701835 L608.899083,319.701835 L572.568807,191.951835 L572.018349,191.951835 L572.018349,319.701835 L545.045872,319.701835 L545.045872,144.701835 Z M656.834862,144.701835 L687.110092,144.701835 L687.110092,319.701835 L656.834862,319.701835 L656.834862,144.701835 Z M703.944954,144.701835 L747.155963,144.701835 L766.422018,269.951835 L766.972477,269.951835 L786.238532,144.701835 L829.449541,144.701835 L829.449541,319.701835 L800.825688,319.701835 L800.825688,187.201835 L800.275229,187.201835 L778.256881,319.701835 L752.93578,319.701835 L730.917431,187.201835 L730.366972,187.201835 L730.366972,319.701835 L703.944954,319.701835 L703.944954,144.701835 Z M846.284404,144.701835 L891.972477,144.701835 C907.568885,144.701835 918.944918,147.993469 926.100917,154.576835 C933.256917,161.160201 936.834862,171.2851 936.834862,184.951835 L936.834862,191.951835 C936.834862,200.95188 935.229374,208.28514 932.018349,213.951835 C928.807323,219.61853 923.899116,223.701822 917.293578,226.201835 L917.293578,226.701835 C932.339525,231.368525 939.862385,243.53507 939.862385,263.201835 L939.862385,278.201835 C939.862385,291.701902 935.963342,301.993466 928.165138,309.076835 C920.366933,316.160204 908.945029,319.701835 893.899083,319.701835 L846.284404,319.701835 L846.284404,144.701835 Z M888.394495,215.951835 C894.449572,215.951835 898.990811,214.535182 902.018349,211.701835 C905.045887,208.868487 906.559633,204.118535 906.559633,197.451835 L906.559633,187.701835 C906.559633,181.36847 905.321113,176.785182 902.844037,173.951835 C900.36696,171.118487 896.467917,169.701835 891.146789,169.701835 L876.559633,169.701835 L876.559633,215.951835 L888.394495,215.951835 Z M893.899083,294.701835 C899.22021,294.701835 903.165125,293.410181 905.733945,290.826835 C908.302765,288.243489 909.587156,283.7852 909.587156,277.451835 L909.587156,262.201835 C909.587156,254.201795 908.07341,248.660184 905.045872,245.576835 C902.018333,242.493486 897.018383,240.951835 890.045872,240.951835 L876.559633,240.951835 L876.559633,294.701835 L893.899083,294.701835 Z M951.743119,144.701835 L982.018349,144.701835 L982.018349,319.701835 L951.743119,319.701835 L951.743119,144.701835 Z" id="northnimbi" fill="#000000" fill-rule="nonzero"></path>
            <g id="Group-4">
                <path d="M590.41825,56.5014114 C585.463105,54.1085921 579.93196,52.7449424 574.071672,52.7449424 C553.824235,52.7449424 537.331085,68.6198836 536.248513,88.6115032 C533.543369,87.8910845 530.719939,87.4794166 527.785938,87.4794166 C520.051078,87.4794166 512.956503,90.1809868 507.348215,94.6578746 C497.939354,84.2889908 484.395634,77.7280346 469.285913,77.7280346 C461.61791,77.7280346 423.967767,93.3199541 417.431193,96.3302752 C407.950331,66.4071689 410.387317,30.8750882 377.357303,30.8750882 C350.19272,30.8750882 326.463567,45.5407551 313.614133,67.38488 C304.346701,58.3281875 291.690124,52.7449424 277.714403,52.7449424 C267.330971,52.7449424 257.685538,55.8581804 249.600963,61.1326747 C242.457531,36.9471889 220.101522,19.2969301 193.610654,19.2969301 C179.68379,19.2969301 166.903785,24.1854858 156.870067,32.3159257 C145.452919,12.9932663 124.416053,0 100.339757,0 C64.0954558,0 34.7143004,29.3827923 34.7143004,65.6610209 C34.7143004,66.4843566 34.747729,67.2819631 34.7760147,68.1052988 C14.6057205,74.5890673 0,93.5000588 0,115.858769 C0,120.20701 0.61200026,124.426606 1.6560007,128.440367 L678.899083,128.440367 C677.502796,113.877617 594.280538,24.6486121 590.41825,56.5014114 Z" id="Fill-31" fill="#005069"></path>
                <path d="M500.194751,132.918277 C500.130568,132.957295 500.065653,132.993725 500,133.027523 L467.660491,132.948029 L380.733945,133.027523 C380.722373,132.97074 380.708458,132.872278 380.692341,132.734253 L276.063092,132.477064 C275.518322,129.803819 275.229358,127.035945 275.229358,124.1971 C275.229358,105.697294 287.372973,90.0599896 304.12581,84.7371554 C303.825003,82.1680007 303.652098,79.5468006 303.652098,76.8853834 C303.652098,39.6492008 333.874944,9.46281642 371.156105,9.46281642 C405.649468,9.46281642 434.081682,35.3057681 438.143766,68.662196 C440.596318,67.9549868 443.109727,67.3925016 445.675488,66.9882469 C454.329694,48.3857315 473.195272,35.4855616 495.086606,35.4855616 C508.836106,35.4855616 521.382377,40.5812882 530.967946,48.9724407 C537.689924,20.8844358 562.969583,0 593.152164,0 C628.472156,0 657.103329,28.5966312 657.103329,63.8740109 C657.103329,64.8912636 657.070169,65.8990536 657.022798,66.8997464 C668.588484,68.6101505 679.071738,73.6183461 687.510923,80.9283718 C694.957681,74.7870039 704.505353,71.0965055 714.919919,71.0965055 C717.15821,71.0965055 719.337286,71.3188817 721.478466,71.6453488 C717.342958,65.3289189 714.919919,57.7941513 714.919919,49.6797862 C714.919919,27.4705561 732.947042,9.46281642 755.185467,9.46281642 C772.513864,9.46281642 787.243949,20.4183921 792.919023,35.7528862 C794.382794,35.5872869 795.858408,35.4855616 797.364813,35.4855616 C809.783182,35.4855616 820,42 823,52 C835,50 840.555535,55.3645732 844.501559,60.6353619 C855.567479,40.0371763 877.327455,26.0227452 902.370257,26.0227452 C931.899115,26.0227452 956.870861,45.5043185 965.120561,72.2935518 C966.07746,72.2060207 967.039096,72.1445124 968.014943,72.1445124 C985.677308,72.1445124 1000,86.4404623 1000,104.088615 C1000,116.461247 992.955898,127.177887 982.662129,132.477064 L500.194751,132.918277 Z" id="Combined-Shape" stroke="#FFFFFF" stroke-width="9" fill="#006D8F"></path>
            </g>
            <path d="M591.755791,41.7109742 L639.920929,133.454093 L543.590653,133.454093 L591.755791,41.7109742 Z M591.755791,99.2589309 L543.590653,133.454091 L639.920929,133.454091 L591.755791,99.2589309 Z" id="Combined-Shape" fill="#FFFFFF"></path>
        </g>
    </g>
</svg>